<?xml version="1.0" encoding="UTF-8" standalone="no"?>
<!-- Created with Inkscape (http://www.inkscape.org/) -->

<svg
   width="214.42387mm"
   height="100.41228mm"
   viewBox="0 0 214.42387 100.41228"
   version="1.1"
   id="svg1"
   xml:space="preserve"
   xmlns:inkscape="http://www.inkscape.org/namespaces/inkscape"
   xmlns:sodipodi="http://sodipodi.sourceforge.net/DTD/sodipodi-0.dtd"
   xmlns="http://www.w3.org/2000/svg"
   xmlns:svg="http://www.w3.org/2000/svg"><sodipodi:namedview
     id="namedview1"
     pagecolor="#ffffff"
     bordercolor="#000000"
     borderopacity="0.25"
     inkscape:showpageshadow="2"
     inkscape:pageopacity="0.0"
     inkscape:pagecheckerboard="0"
     inkscape:deskcolor="#d1d1d1"
     inkscape:document-units="mm"><inkscape:page
       x="9.4997073e-23"
       y="2.3224643e-20"
       width="214.42387"
       height="100.41227"
       id="page2"
       margin="0"
       bleed="0" /></sodipodi:namedview><defs
     id="defs1" /><g
     inkscape:label="Layer 1"
     inkscape:groupmode="layer"
     id="layer1"
     transform="translate(16.081448,-130.38163)"><g
       id="g4"
       transform="translate(-15.485529,27.397474)"><path
         id="path2"
         style="font-weight:900;font-size:35.9616px;font-family:'Adwaita Sans';-inkscape-font-specification:'Adwaita Sans Heavy';fill:#333333;stroke-width:0.3746"
         d="m 162.57031,102.99609 c -1.93312,0.10913 -4.29619,0.99097 -5.8457,2.63086 -1.54951,1.63989 -2.1897,3.5577 -2.50391,5.30664 -0.19457,1.08292 -2.58647,14.822 -5.4707,31.40235 -1.10793,6.36904 -1.25718,7.22659 -2.14648,12.33789 -1.65659,-5.81993 -2.27578,-7.9964 -4.96094,-17.42774 -1.42527,-5.00614 -2.98798,-10.51146 -3.46485,-12.20117 -0.49355,-1.74885 -0.77716,-2.79353 -1.25195,-3.94531 -0.47479,-1.15178 -1.64033,-2.70623 -2.39258,-3.33984 -1.39137,-1.17196 -3.98416,-2.08985 -5.77148,-2.08985 -1.75761,0 -4.28477,0.89569 -5.69141,2.04492 -0.40614,0.30605 -1.12255,0.95356 -1.50781,1.51368 -0.83229,1.21001 -0.9241,1.74821 -1.31641,2.81836 -0.50706,1.3832 -2.11518,6.15937 -3.4375,10.06249 -0.16393,-3.13375 -0.79274,-6.14766 -2.27539,-8.78124 -1.58453,-2.83425 -3.93827,-5.22284 -6.79101,-6.75586 -2.76892,-1.4992 -5.91269,-2.23438 -9.101565,-2.23438 -3.191593,0 -6.339142,0.7359 -9.113281,2.23047 -2.857219,1.53415 -5.217859,3.92647 -6.804688,6.76953 -1.68457,3.01818 -2.396484,6.48852 -2.396484,10.12305 0,0.43957 0.117082,0.84683 0.138672,1.28125 h -0.59375 v -14.38086 a 5.602034,5.602034 0 0 0 -5.601563,-5.60156 h -7.304687 a 5.602034,5.602034 0 0 0 -4.917969,3.95117 l -0.05078,-0.14844 a 5.602034,5.602034 0 0 0 -5.304688,-3.80273 h -9.832031 a 5.602034,5.602034 0 0 0 -5.310547,3.81836 l -0.0059,0.0156 a 5.602034,5.602034 0 0 0 -4.869141,-3.83398 h -7.304687 a 5.602034,5.602034 0 0 0 -4.19336,2.20312 c -0.264772,-0.15071 -0.484868,-0.37705 -0.757812,-0.50976 -2.42804,-1.19194 -5.119173,-1.69336 -7.867188,-1.69336 H 5.4355469 a 5.602034,5.602034 0 0 0 -5.60156252,5.60156 v 26.16406 a 5.602034,5.602034 0 0 0 1.33984372,3.23633 c -0.1727923,0.26548 -0.42426997,0.40628 -0.5800781,0.70117 -1.5553233,2.94363 -1.54408249,4.92129 -0.20898437,7.84961 0.65190357,1.42984 1.37957147,2.18779 2.19726567,2.92187 0.8176941,0.73409 1.6115463,1.42251 3.3554687,1.90625 1.2789821,0.35495 1.1530687,0.20616 1.421875,0.22461 0.2688063,0.0185 0.5288835,0.0304 0.8398438,0.041 0.6219204,0.0213 1.4238992,0.036 2.4511722,0.0488 2.049558,0.0255 4.986631,0.0387 8.830078,0.0391 l 99.664061,0.37109 a 5.602034,5.602034 0 0 0 2.51563,-0.58593 l 0.73828,-0.36719 a 5.602034,5.602034 0 0 0 0.002,-0.002 c 1.80588,-0.89895 3.64809,-2.97462 4.35938,-4.80664 0.22959,-0.59139 0.21818,-0.60747 0.40625,-1.1543 0.18806,-0.54683 0.44212,-1.29083 0.74609,-2.1836 0.0309,-0.0909 0.0833,-0.2479 0.11523,-0.34179 0.54994,1.93381 1.13099,3.97487 1.54883,5.44336 1.12662,3.95948 2.7153,9.55191 3.53125,12.42383 2.7466,9.66728 4.51197,15.85978 5.62305,19.71484 0.55554,1.92753 0.94735,3.26787 1.22265,4.1875 0.27531,0.91963 0.12655,0.79897 0.70508,2.10547 1.07694,2.43194 2.34412,3.48579 4.51953,4.43554 1.83091,0.79995 2.53011,0.65019 3.48047,0.65235 0.95036,0.002 1.66436,0.13091 3.4375,-0.61133 2.14148,-0.89643 3.39255,-1.99133 4.49219,-4.14453 0.47066,-0.92161 0.39992,-0.98447 0.45703,-1.18945 0.0571,-0.20499 0.0949,-0.36458 0.13477,-0.53711 0.0798,-0.34506 0.16038,-0.72902 0.25781,-1.2168 0.19485,-0.97555 0.45168,-2.34245 0.78906,-4.19531 0.67477,-3.70573 1.66817,-9.33566 3.06055,-17.33789 1.31333,-7.5479 1.90322,-10.92538 2.76758,-15.88672 -0.0191,0.10812 -0.27264,-0.0602 0.57422,1.30859 0.85577,1.38315 2.581,2.84923 4.01367,3.49805 v -0.002 c 0.58695,0.26584 2.29934,0.68908 3.39648,0.74023 1.09715,0.0512 2.47709,0.0493 5.14844,0.0508 a 5.602034,5.602034 0 0 0 0.002,0 h 1.53125 l -1.00976,-3.11523 c 2.05907,6.30623 7.37732,10.98622 13.8789,12.32617 1.43055,0.29482 2.98958,0.40901 4.51563,0.33398 4.40953,-0.21681 8.67271,-1.99227 11.8418,-5.01562 2.29554,-2.19 4.04221,-4.9651 5.01757,-7.98047 1.02654,-3.1736 1.08679,-5.89307 0.44727,-9.05859 -1.07912,-5.3412 -4.54631,-9.9444 -9.33399,-12.63477 -5.12172,-2.87806 -11.17618,-2.99643 -16.48828,-0.50977 -3.44367,1.61203 -6.30422,4.23783 -8.22656,7.46289 -0.06,-0.28554 -0.15923,-0.75603 -0.19531,-0.92578 -0.32115,-1.51066 -3.10899,-14.70648 -5.36719,-25.40234 -0.57014,-2.70049 -1.11774,-5.21306 -1.54687,-7.10937 -0.21457,-0.94816 -0.39738,-1.73817 -0.54688,-2.34961 -0.0747,-0.30572 -0.13963,-0.56137 -0.20703,-0.8086 -0.0673,-0.24692 0.27917,0.17218 -0.51172,-1.37695 v -0.002 c -1.54654,-3.02661 -5.26742,-4.87905 -8.41797,-4.70118 z M 30.248047,121.72266 c 0.0098,0.0163 0.01758,0.0345 0.01172,0.0273 -0.0052,-0.009 -0.0065,-0.0188 -0.01172,-0.0273 z m -15.990234,6.88086 0.888671,0.88867 -0.878906,0.8789 c -0.125994,-0.34486 -0.279297,-0.73861 -0.279297,-0.8789 0,-0.16737 0.139784,-0.54791 0.269532,-0.88867 z m 15.865234,8.63281 c -0.0065,0.01 -0.01563,0.0202 -0.01367,0.0156 0.004,-0.006 0.0097,-0.009 0.01367,-0.0156 z m 148.255863,10.11914 c 0.0421,0.0395 0.0835,0.0648 0.125,0.10547 -0.21256,0.46253 -0.48582,0.89188 -0.66016,1.37304 v -0.004 z m 16.96093,6.9375 c 0.46481,0.67483 2.3206,1.71459 0.17383,1.30273 -0.0463,-0.001 -0.0205,-0.0133 -0.0859,-0.0117 -0.12936,0.003 -0.2574,-0.002 -0.39453,-0.004 -0.0466,-0.13662 -0.46219,-0.52262 -0.38476,-0.35742 0.11166,0.23822 0.006,-0.47602 0.0215,-0.52735 0.0188,-0.0619 0.32749,-0.35601 0.53906,-0.39648 0.072,-0.0138 0.1105,-0.01 0.13086,-0.006 z" /><path
         id="text2"
         style="font-weight:900;font-size:35.9616px;font-family:'Adwaita Sans';-inkscape-font-specification:'Adwaita Sans Heavy';fill:#e8e3d5;stroke-width:0.3746"
         d="M 5.4360783,146.52461 V 120.36114 H 16.551163 q 3.125569,0 5.408288,1.1238 2.282719,1.10624 3.511875,3.16069 1.246715,2.03689 1.246715,4.84639 0,2.7217 -1.299393,4.70591 -1.281835,1.98421 -3.65235,3.07289 -2.352957,1.07112 -5.601441,1.07112 H 9.9312784 v -5.65412 h 6.0755436 q 1.106241,0 1.896413,-0.40386 0.807731,-0.40387 1.246716,-1.1238 0.438984,-0.71994 0.438984,-1.66814 0,-0.96577 -0.438984,-1.66814 -0.438985,-0.71994 -1.246716,-1.1238 -0.790172,-0.40387 -1.896413,-0.40387 h -3.266043 v 20.2284 z m 14.4864847,0 -5.689238,-11.87014 h 7.462735 l 5.829713,11.87014 z m 16.751645,-26.16347 v 26.16347 h -7.3047 v -26.16347 z m 1.404751,26.16347 8.779687,-26.16347 h 9.833251 l 8.867484,26.16347 h -8.217787 l -2.932416,-10.14932 q -0.948206,-3.30116 -1.843735,-6.51453 -0.895528,-3.23092 -1.738378,-6.70768 h 1.96665 q -0.877969,3.47676 -1.791056,6.70768 -0.913088,3.21337 -1.896413,6.51453 l -3.037772,10.14932 z m 6.549647,-4.30204 v -5.619 h 14.398688 v 5.619 z m 22.335526,4.30204 v -26.16347 h 7.3047 v 19.98257 h 11.273119 v 6.1809 z m 31.677109,0.42143 q -3.564554,0 -6.46185,-1.56279 -2.879738,-1.56278 -4.565438,-4.56543 -1.6857,-3.02022 -1.6857,-7.35738 0,-4.37229 1.6857,-7.3925 1.6857,-3.02021 4.565438,-4.56544 2.897296,-1.56278 6.46185,-1.56278 3.564549,0 6.444289,1.56278 2.87974,1.54523 4.56544,4.56544 1.70326,3.02021 1.70326,7.3925 0,4.35472 -1.70326,7.37493 -1.6857,3.00266 -4.56544,4.56544 -2.87974,1.54523 -6.444289,1.54523 z m 0,-6.32138 q 1.720819,0 2.914859,-0.84285 1.19403,-0.86041 1.80861,-2.45831 0.61458,-1.61546 0.61458,-3.86306 0,-2.26516 -0.61458,-3.88063 -0.61458,-1.61546 -1.80861,-2.45831 -1.19404,-0.86041 -2.914859,-0.86041 -1.70326,0 -2.897297,0.86041 -1.194038,0.84285 -1.826175,2.45831 -0.614578,1.61547 -0.614578,3.88063 0,2.2476 0.614578,3.86306 0.632137,1.5979 1.826175,2.45831 1.194037,0.84285 2.897297,0.84285 z m 48.778599,56.97727 c -0.68432,-0.29863 -1.36685,-0.95193 -1.64078,-1.57052 -0.22495,-0.508 -1.79066,-5.9412 -7.28275,-25.27187 -0.81634,-2.87328 -2.40626,-8.46453 -3.53316,-12.425 -1.1269,-3.96047 -3.00649,-10.5683 -4.17687,-14.68408 -1.17038,-4.11579 -2.1735,-7.56768 -2.22914,-7.67089 -0.13136,-0.24362 -0.003,-0.60316 -3.67807,10.28296 -1.71728,5.08647 -3.22099,9.5023 -3.34158,9.81292 -0.34016,0.87613 -0.82816,1.42031 -1.63292,1.82091 l -0.73842,0.36758 -99.664309,-0.37085 c -7.690417,-5.2e-4 -11.7068925,-0.0506 -12.0671895,-0.15059 -0.689933,-0.19138 -1.621343,-1.02846 -1.952464,-1.75472 -0.378081,-0.82926 -0.349104,-2.12365 0.06509,-2.90756 0.427399,-0.80891 1.311519,-1.4744 2.216286,-1.66823 0.480822,-0.10301 3.9496385,-0.1788 10.4492455,-0.1542 l 97.866641,0.37032 0.66464,-1.9414 c 0.36554,-1.06778 1.93496,-5.69008 3.48759,-10.2718 6.31764,-18.64303 5.61943,-16.73903 6.37013,-17.37133 0.66324,-0.55865 1.26034,-0.77199 2.16058,-0.77199 0.90065,0 1.49734,0.21334 2.1617,0.77293 0.68178,0.57426 0.89407,1.0896 1.86269,4.52181 0.48215,1.70844 2.04341,7.20438 3.46944,12.21321 5.47684,19.2368 8.71589,30.61708 10.1169,35.54537 0.80026,2.81504 1.49485,5.11826 1.54355,5.11826 0.0487,0 0.16242,-0.46064 0.25274,-1.02366 0.0904,-0.563 0.32011,-1.91316 0.51067,-3.00035 0.19057,-1.08719 2.7062,-15.54184 5.59031,-32.12144 2.8841,-16.5796 5.34318,-30.69782 5.46463,-31.37382 0.39207,-2.18227 1.38754,-3.23555 3.1521,-3.33516 1.4099,-0.0796 2.53097,0.51742 3.11346,1.65799 0.14535,0.28458 1.18931,4.8989 2.31991,10.25403 2.25834,10.69654 5.03984,23.85962 5.36923,25.40903 0.11555,0.5436 0.40852,1.94141 0.65101,3.10626 0.24251,1.16484 0.49323,2.24497 0.55718,2.40027 0.11285,0.27413 0.23011,0.28124 4.0051,0.24279 l 3.88884,-0.0396 0.31819,-0.87815 c 1.23277,-3.40231 3.53184,-5.90424 6.85502,-7.45986 3.51339,-1.64467 8.10274,-1.51554 11.36899,0.31987 3.53209,1.98481 5.82069,5.0631 6.58805,8.86125 0.3628,1.79576 0.23231,4.61671 -0.28796,6.22515 -0.76069,2.35171 -1.75937,3.93982 -3.55446,5.65237 -2.30726,2.20116 -4.9447,3.31198 -8.24943,3.47447 -1.33845,0.0658 -1.8875,0.0259 -3.10957,-0.22596 -4.50333,-0.92812 -8.27907,-4.27438 -9.6848,-8.58319 l -0.24184,-0.74126 -5.60216,-0.003 c -5.33317,-0.003 -5.63272,-0.0169 -6.23823,-0.29115 -0.72764,-0.32953 -1.17235,-0.71137 -1.56201,-1.34116 -0.23356,-0.37751 -2.47379,-10.63915 -5.36084,-24.55592 -0.24165,-1.16485 -0.48547,-2.23321 -0.54183,-2.37415 -0.061,-0.15241 -0.60758,2.65102 -1.34901,6.91847 -0.68558,3.94609 -1.52524,8.76314 -1.86589,10.70454 -0.34067,1.9414 -2.36874,13.58377 -4.50686,25.87189 -2.78271,15.99269 -3.96714,22.49801 -4.16775,22.89083 -0.31811,0.62289 -0.9964,1.24304 -1.66622,1.52343 -0.57396,0.24026 -1.95695,0.23712 -2.5134,-0.006 z m 50.56688,-36.97757 c 1.23429,-0.60936 2.49196,-1.85206 3.0144,-2.97848 1.71124,-3.68958 -0.54965,-8.05606 -4.58158,-8.84845 -3.03231,-0.59593 -6.20978,1.31193 -7.1087,4.2683 -0.44724,1.47087 -0.34379,3.23363 0.26613,4.53483 0.75576,1.61235 2.49823,3.07349 4.17291,3.49917 0.2502,0.0636 1.0663,0.10093 1.81355,0.0829 1.25008,-0.0301 1.44368,-0.0747 2.42329,-0.55833 z" /><path
         id="path3"
         style="fill:#333333;stroke-width:0.264583"
         d="m 16.86679,128.92432 a 1.7448404,1.9387115 0 0 1 -1.744841,1.93871 1.7448404,1.9387115 0 0 1 -1.74484,-1.93871 1.7448404,1.9387115 0 0 1 1.74484,-1.93872 1.7448404,1.9387115 0 0 1 1.744841,1.93872 z" /><ellipse
         style="fill:#333333;fill-opacity:1;stroke-width:0.264583"
         id="path4"
         cx="194.74358"
         cy="155.38773"
         rx="2.6172605"
         ry="1.4540336" /></g></g></svg>
