<?xml version="1.0" encoding="UTF-8" standalone="no"?>
<!-- Created with Inkscape (http://www.inkscape.org/) -->

<svg
   width="687.79492"
   height="330.28448"
   viewBox="0 0 181.97906 87.387761"
   version="1.1"
   id="svg1"
   xml:space="preserve"
   sodipodi:docname="logo.svg"
   xmlns:inkscape="http://www.inkscape.org/namespaces/inkscape"
   xmlns:sodipodi="http://sodipodi.sourceforge.net/DTD/sodipodi-0.dtd"
   xmlns="http://www.w3.org/2000/svg"
   xmlns:svg="http://www.w3.org/2000/svg"><sodipodi:namedview
     id="namedview1"
     pagecolor="#ffffff"
     bordercolor="#000000"
     borderopacity="0.25"
     inkscape:showpageshadow="2"
     inkscape:pageopacity="0.0"
     inkscape:pagecheckerboard="0"
     inkscape:deskcolor="#d1d1d1"
     inkscape:document-units="px"><inkscape:page
       x="1.2578292e-21"
       y="0"
       width="181.97905"
       height="87.387764"
       id="page1"
       margin="0"
       bleed="0" /></sodipodi:namedview><defs
     id="defs1" /><g
     inkscape:label="Layer 1"
     inkscape:groupmode="layer"
     id="layer1"
     transform="translate(-109.15557,-274.63242)"><g
       id="g15"><g
         style="fill:none;stroke:none"
         id="g12"
         transform="matrix(0.4909425,0,0,0.4909425,108.66463,274.14148)"><rect
           x="1"
           y="1"
           width="178"
           height="178"
           rx="29"
           fill="#141414"
           stroke="#e8e3d5"
           stroke-width="2"
           id="rect1"
           style="stroke:none" /><path
           d="m 106.625,100.655 c -2.889,-0.162 -5.735,-1.2749 -7.6664,-3.4634 -2.6861,-2.9224 -3.6369,-7.6714 -2.008,-11.3577 2.0312,-4.7656 6.9614,-6.7914 11.9444,-6.4427 3.713,0 12.141,0 16.459,0 1.413,-0.0199 2.65,0.0664 3.91,-0.093 2.902,-0.3055 5.944,-2.2151 7.496,-4.759 2.952,-4.47 1.835,-11.0057 -2.633,-14.061 -1.778,-1.2951 -3.916,-1.8829 -6.107,-2.049 -1.093,-0.1096 -2.194,-0.2325 -3.231,-0.548 -3.281,-0.9796 -5.888,-3.5102 -6.968,-6.7382 -0.592,-1.6804 -0.568,-3.5036 -0.871,-5.2438 -0.698,-4.1911 -3.939,-7.4058 -8.151,-8.3589 -0.961,-0.2258 -1.872,-0.3919 -2.763,-0.3985 -10.209,-0.0332 -28.1662,-0.1296 -32.0092,-0.1395 -5.1029,-0.1063 -9.9765,3.5069 -10.8707,8.6146 -1.0405,4.9516 1.9547,10.2452 6.6853,11.909 1.6722,0.6243 3.0352,0.7605 4.8569,0.7406 5.5783,0.0531 6.7375,0.186 9.7926,0.2158 3.9294,-0.1262 8.2012,1.7867 10.0994,5.2937 4.1455,7.6548 -1.7519,15.8078 -10.1991,15.5089 -10.4486,0.0233 -16.4746,-0.0133 -29.0141,-0.0033 -2.1576,0.0166 -3.8198,-0.1229 -5.8642,0.4251 -5.8809,1.3815 -9.4546,8.1696 -7.2638,13.8219 1.3164,3.7261 4.8037,6.4161 8.7398,6.8974 4.9134,0.319 15.7166,0.037 28.1232,0.126 2.8556,0 4.9466,0 5.7777,0 0.8012,-0.006 1.5525,0.087 2.4168,0.259 5.2725,0.887 8.8728,6.021 8.5703,11.225 0,3.511 0,14.261 0,19.617 -0.01,1.93 0.3357,3.916 1.333,5.792 2.8561,5.563 10.5551,7.336 15.5781,3.53 3.796,-2.786 4.618,-6.841 4.401,-11.235 -0.006,-4.466 0.007,-12.091 0,-17.036 0.429,-6.566 -3.783,-11.776 -10.495,-12.035 l -0.066,-0.007 z"
           fill="#bbebe1"
           id="path1"
           style="stroke:none" /></g><g
         id="g14"
         transform="translate(5.2916662)"><rect
           x="198.45518"
           y="274.63242"
           width="87.387764"
           height="87.387764"
           rx="14.237332"
           fill="#141414"
           stroke="#e8e3d5"
           stroke-width="0.981885"
           id="rect14"
           style="stroke:none" /><path
           style="font-weight:900;font-size:35.9616px;font-family:'Adwaita Sans';-inkscape-font-specification:'Adwaita Sans Heavy';fill:#bbebe1;fill-opacity:1;stroke-width:0.235054"
           d="m 236.43946,346.19819 c -0.42939,-0.18737 -0.85767,-0.59731 -1.02956,-0.98546 -0.14114,-0.31876 -1.12359,-3.72799 -4.56977,-15.85756 -0.51223,-1.80293 -1.50988,-5.31132 -2.21697,-7.79644 -0.70711,-2.4851 -1.88652,-6.63138 -2.6209,-9.21394 -0.73439,-2.58257 -1.36383,-4.74857 -1.39875,-4.81333 -0.0825,-0.15285 -0.002,-0.37846 -2.3079,6.45234 -1.07756,3.19166 -2.02111,5.9625 -2.09678,6.15741 -0.21344,0.54975 -0.51966,0.89122 -1.02463,1.14258 l -0.46334,0.23065 0.0187,-0.0366 c -4.82558,-3.3e-4 -7.34583,-0.0317 -7.57191,-0.0945 -0.43291,-0.12006 -1.01736,-0.64533 -1.22513,-1.10105 -0.23724,-0.52034 -0.21906,-1.33254 0.0408,-1.82443 0.26818,-0.50757 0.82295,-0.92516 1.39067,-1.04678 0.30171,-0.0646 2.47832,-0.11216 6.55669,-0.0967 l -1.14671,0.0362 0.41704,-1.21819 c 0.22936,-0.67001 1.21415,-3.5704 2.1884,-6.44533 3.96419,-11.69812 3.52608,-10.50338 3.99712,-10.90014 0.41618,-0.35055 0.79084,-0.48441 1.35573,-0.48441 0.56513,0 0.93954,0.13386 1.35641,0.485 0.42781,0.36033 0.56101,0.68369 1.16881,2.83735 0.30254,1.072 1.2822,4.52058 2.177,7.66352 3.43661,12.07068 5.46903,19.21157 6.34814,22.30397 0.50215,1.76638 0.93799,3.2116 0.96855,3.2116 0.0306,0 0.10189,-0.28905 0.15859,-0.64233 0.0568,-0.35326 0.20087,-1.20046 0.32043,-1.88266 0.11957,-0.68219 1.69808,-9.75217 3.5078,-20.15551 1.80971,-10.40336 3.35273,-19.26225 3.42894,-19.68643 0.24602,-1.36932 0.87066,-2.03023 1.97788,-2.09274 0.88469,-0.05 1.58813,0.32468 1.95363,1.04037 0.0912,0.17855 0.74626,3.07394 1.45569,6.43418 1.41706,6.71186 3.16239,14.97141 3.36908,15.94364 0.0725,0.34109 0.25634,1.21818 0.40849,1.9491 0.15218,0.73091 0.3095,1.40867 0.34962,1.50613 0.0708,0.172 0.1444,0.17646 2.51312,0.15233 l 2.44017,-0.0248 0.19966,-0.55102 c 0.77352,-2.13488 2.21614,-3.70478 4.30137,-4.68091 2.20458,-1.03198 5.08429,-0.95096 7.13379,0.20072 2.21632,1.24543 3.65237,3.17699 4.13386,5.56024 0.22765,1.12681 0.14577,2.89688 -0.18068,3.90616 -0.47731,1.47564 -1.10396,2.47215 -2.23035,3.54674 -1.44775,1.38118 -3.10269,2.07819 -5.17635,2.18016 -0.83984,0.0413 -1.18435,0.0163 -1.95118,-0.14179 -2.82573,-0.58238 -5.19493,-2.68208 -6.077,-5.38576 l -0.15175,-0.46513 -3.51524,-0.003 c -3.34645,-0.002 -3.53441,-0.0101 -3.91436,-0.18268 -0.45657,-0.20679 -0.73562,-0.44637 -0.98013,-0.84155 -0.14654,-0.23688 -1.55225,-6.67585 -3.3638,-15.40833 -0.15164,-0.73091 -0.30464,-1.40128 -0.34,-1.48972 -0.0382,-0.0956 -0.38125,1.66345 -0.84647,4.34118 -0.43018,2.4761 -0.95706,5.4987 -1.17081,6.71688 -0.21376,1.21819 -1.48632,8.52353 -2.82795,16.23407 -1.7461,10.03507 -2.4893,14.11702 -2.61518,14.3635 -0.1996,0.39085 -0.62522,0.77999 -1.04551,0.95593 -0.36015,0.15076 -1.22795,0.14879 -1.57711,-0.004 z"
           id="path12"
           sodipodi:nodetypes="csscsccsscccsscccsssssscsscsssccscssscssssssccscccsssssssscc" /></g></g></g></svg>
